<?xml version="1.0" standalone="no"?>
<!DOCTYPE svg PUBLIC "-//W3C//DTD SVG 20010904//EN"
 "http://www.w3.org/TR/2001/REC-SVG-20010904/DTD/svg10.dtd">
<svg version="1.0" xmlns="http://www.w3.org/2000/svg"
 width="515.000000pt" height="515.000000pt" viewBox="0 0 515.000000 515.000000"
 preserveAspectRatio="xMidYMid meet">
<metadata>
Created by potrace 1.14, written by Peter Selinger 2001-2017
</metadata>
<g transform="translate(0.000000,515.000000) scale(0.100000,-0.100000)"
fill="#000000" stroke="none">
<path d="M2540 4698 c-66 -98 -213 -303 -247 -344 -18 -23 -33 -43 -33 -46 0
-3 50 -3 110 0 61 2 111 3 112 1 1 -2 4 -443 7 -979 l6 -975 28 75 c32 85 110
235 138 266 19 20 20 45 19 819 l0 797 115 -3 c63 -2 115 -3 115 -3 0 1 -62
85 -139 187 -76 102 -149 202 -161 221 -12 20 -25 36 -28 36 -4 0 -23 -24 -42
-52z"/>
<path d="M1290 4573 c0 -9 60 -187 134 -398 25 -71 46 -132 46 -134 0 -2 23
34 50 80 75 124 63 121 169 50 104 -70 240 -183 323 -268 192 -196 352 -496
412 -773 13 -62 14 -51 15 219 l1 284 -27 46 c-79 136 -233 325 -359 440 -32
30 -123 106 -201 168 -79 63 -143 118 -143 123 0 8 78 80 140 128 l24 20 -179
6 c-99 3 -231 9 -292 12 -64 3 -113 2 -113 -3z"/>
<path d="M3578 4572 c-153 -1 -278 -4 -278 -5 0 -2 34 -37 75 -78 41 -42 75
-80 74 -85 0 -5 -57 -52 -126 -104 -236 -179 -419 -373 -543 -579 l-50 -84 0
-298 c0 -384 7 -393 79 -104 62 249 101 340 217 501 71 99 153 189 252 278 84
75 255 206 270 206 10 0 117 -146 128 -174 5 -13 29 43 76 180 92 264 117 344
109 347 -3 1 -131 1 -283 -1z"/>
<path d="M917 4149 c-148 -37 -270 -69 -273 -71 -2 -2 4 -15 14 -29 71 -101
272 -433 272 -450 0 -5 3 -9 8 -9 4 0 20 37 36 83 16 45 35 94 42 109 l14 27
103 -35 c133 -46 438 -196 553 -272 228 -150 395 -321 529 -542 170 -280 232
-500 206 -732 -16 -134 -12 -491 5 -508 12 -12 24 449 24 929 l0 277 -35 72
c-117 245 -367 509 -650 687 -111 71 -439 232 -560 276 -49 18 -93 36 -98 39
-4 4 13 53 38 110 25 57 44 104 43 105 -2 0 -124 -29 -271 -66z"/>
<path d="M3950 4213 c0 -5 7 -18 15 -30 16 -24 78 -173 73 -177 -2 -2 -57 -27
-123 -56 -469 -206 -757 -411 -978 -695 -84 -109 -103 -138 -162 -251 -37 -72
-45 -97 -45 -141 l0 -53 97 96 c53 53 116 105 139 117 27 14 64 50 102 97 185
234 508 475 802 598 111 46 250 96 254 91 2 -2 20 -53 41 -112 l38 -108 47 88
c67 126 223 380 244 394 4 4 4 9 0 12 -5 3 -121 33 -259 67 -137 34 -258 64
-267 66 -10 3 -18 2 -18 -3z"/>
<path d="M1045 3404 c-54 -41 -160 -116 -233 -166 l-134 -90 39 -22 c49 -28
203 -143 367 -274 l67 -53 -3 124 -3 125 137 7 c254 13 418 -16 602 -107 92
-45 120 -64 199 -132 108 -93 237 -288 259 -391 29 -139 56 -85 33 68 -20 134
-39 196 -97 311 -63 127 -130 221 -186 260 -145 102 -416 164 -800 182 l-153
7 7 113 c4 63 5 114 3 114 -2 0 -49 -35 -104 -76z"/>
<path d="M4006 3418 c3 -35 6 -86 8 -114 l4 -50 -211 -13 c-296 -16 -412 -39
-588 -116 -139 -60 -199 -104 -344 -250 -113 -114 -138 -145 -194 -244 -83
-145 -126 -253 -158 -394 -26 -112 -26 -112 -30 -710 l-5 -597 96 2 96 3 0
561 c0 449 3 578 15 645 63 364 314 686 639 822 168 71 380 104 574 91 l102
-6 0 -115 0 -114 68 54 c37 30 105 79 152 110 47 31 120 80 162 110 l78 54
-63 42 c-123 82 -294 207 -342 249 -26 23 -51 42 -55 42 -5 0 -6 -28 -4 -62z"/>
<path d="M1475 2894 c-192 -147 -305 -237 -302 -240 18 -18 239 -144 292 -166
39 -16 99 -45 134 -64 l64 -35 -7 73 c-4 40 -10 84 -13 96 l-6 24 99 -4 c84
-2 108 -7 155 -31 116 -57 198 -159 243 -306 19 -63 20 -97 24 -683 l3 -618
89 0 89 0 7 36 c3 19 4 299 1 622 -5 667 -5 661 -92 837 -51 103 -104 169
-182 227 -105 77 -197 105 -375 115 l-107 6 -3 98 -3 98 -110 -85z"/>
<path d="M3588 2870 c-3 -55 -7 -102 -10 -105 -2 -3 -30 1 -61 7 -70 15 -175
-1 -289 -42 -144 -53 -248 -150 -322 -303 -79 -161 -79 -158 -83 -869 l-4
-628 96 0 95 0 -1 588 c-1 648 1 682 60 809 39 81 124 171 204 214 56 30 72
34 161 37 92 4 98 3 92 -14 -8 -29 -46 -173 -46 -177 0 -8 290 138 398 201
l114 65 -29 24 c-15 13 -86 68 -158 122 -71 55 -146 116 -164 135 -19 20 -38
36 -42 36 -3 0 -8 -45 -11 -100z"/>
<path d="M2760 2203 c-25 -87 -30 -231 -28 -738 3 -522 3 -530 23 -530 20 0
20 7 21 615 0 338 4 632 8 653 4 23 3 37 -3 37 -6 0 -15 -17 -21 -37z"/>
</g>
</svg>
